<svg width="211" height="211" viewBox="0 0 211 211" fill="none" xmlns="http://www.w3.org/2000/svg">
<path fill-rule="evenodd" clip-rule="evenodd" d="M138.449 59.0208L132.649 48.7461C130.246 72.1877 124.01 44.774 124.01 48.4375L155.513 61.6667C155.513 65.3302 156.962 74.3793 160.489 75.3275L166.164 115.711C169.691 116.659 167.816 105.64 167.816 101.976L166.351 72.374C166.351 68.7105 141.977 59.969 138.449 59.0208ZM130.657 15.7415C116.547 11.9487 105.108 20.7536 105.108 35.4077V88.4752C105.108 103.129 116.547 118.084 130.657 121.876L181.755 135.611C195.865 139.404 207.303 130.599 207.303 115.945V62.8775C207.303 48.2233 195.865 33.2691 181.755 29.4763L130.657 15.7415Z" fill="#CCC7EB"/>
<path fill-rule="evenodd" clip-rule="evenodd" d="M149.679 63.6951L85.8072 46.5265C82.2796 45.5783 79.42 47.7795 79.42 51.4431V117.777C79.42 121.441 82.2796 125.179 85.8072 126.128L149.679 143.296C153.207 144.244 156.067 142.043 156.067 138.38V72.0454C156.067 68.3818 153.207 64.6433 149.679 63.6951ZM85.8072 26.6262C71.6969 22.8334 60.2583 31.6383 60.2583 46.2925V112.627C60.2583 127.281 71.6969 142.235 85.8072 146.028L149.679 163.196C163.79 166.989 175.228 158.184 175.228 143.53V77.1959C175.228 62.5418 163.79 47.5876 149.679 43.7948L85.8072 26.6262Z" fill="#7E71CE"/>
<path fill-rule="evenodd" clip-rule="evenodd" d="M108.55 83.3031L31.9034 62.7008C28.3758 61.7526 25.5161 63.9538 25.5161 67.6174V147.219C25.5161 150.882 28.3758 154.621 31.9034 155.569L108.55 176.171C112.078 177.119 114.937 174.918 114.937 171.255V91.6534C114.937 87.9898 112.078 84.2513 108.55 83.3031ZM31.9034 42.8005C17.7931 39.0078 6.35449 47.8126 6.35449 62.4668V142.068C6.35449 156.722 17.7931 171.676 31.9034 175.469L108.55 196.071C122.66 199.864 134.099 191.059 134.099 176.405V96.804C134.099 82.1498 122.66 67.1956 108.55 63.4028L31.9034 42.8005Z" fill="#533BE4"/>
</svg>
