<svg width="226" height="226" viewBox="0 0 226 226" fill="none" xmlns="http://www.w3.org/2000/svg">
<path fill-rule="evenodd" clip-rule="evenodd" d="M147.756 61.8333L141.544 50.8305C138.969 75.9333 132.29 46.5768 132.29 50.5L166.033 64.6667C166.033 68.5898 167.585 78.2802 171.363 79.2956L177.441 122.541C181.219 123.556 179.21 111.756 179.21 107.833L177.641 76.1328C177.641 72.2097 151.534 62.8487 147.756 61.8333ZM139.41 15.4869C124.296 11.4254 112.044 20.8542 112.044 36.5469V93.375C112.044 109.068 124.296 125.082 139.41 129.143L194.14 143.851C209.253 147.913 221.505 138.484 221.505 122.791V65.9633C221.505 50.2706 209.253 34.2567 194.14 30.1951L139.41 15.4869Z" fill="#CCC7EB"/>
<path fill-rule="evenodd" clip-rule="evenodd" d="M159.784 66.8389L91.3715 48.4537C87.5932 47.4383 84.5302 49.7955 84.5302 53.7187V124.754C84.5302 128.677 87.5932 132.68 91.3715 133.696L159.784 152.081C163.563 153.096 166.626 150.739 166.626 146.816V75.781C166.626 71.8578 163.563 67.8543 159.784 66.8389ZM91.3715 27.1432C76.2581 23.0816 64.0063 32.5105 64.0063 48.2031V119.238C64.0063 134.931 76.2581 150.945 91.3715 155.006L159.784 173.392C174.898 177.453 187.15 168.024 187.15 152.332V81.2966C187.15 65.6039 174.898 49.59 159.784 45.5284L91.3715 27.1432Z" fill="#7E71CE"/>
<path fill-rule="evenodd" clip-rule="evenodd" d="M115.731 87.8363L33.6357 65.774C29.8573 64.7586 26.7944 67.1158 26.7944 71.039V156.281C26.7944 160.204 29.8573 164.208 33.6357 165.223L115.731 187.285C119.509 188.301 122.572 185.944 122.572 182.02V96.7783C122.572 92.8552 119.509 88.8517 115.731 87.8363ZM33.6357 44.4635C18.5223 40.4019 6.27051 49.8308 6.27051 65.5234V150.766C6.27051 166.458 18.5223 182.472 33.6357 186.534L115.731 208.596C130.844 212.658 143.096 203.229 143.096 187.536V102.294C143.096 86.6013 130.844 70.5873 115.731 66.5258L33.6357 44.4635Z" fill="#533BE4"/>
</svg>
