<svg width="205" height="205" viewBox="0 0 205 205" fill="none" xmlns="http://www.w3.org/2000/svg">
<rect y="19.6559" width="205" height="163.412" fill="#F7FF0B"/>
<path d="M7.72982e-05 87.0595L7.60435e-05 115.631L147.527 115.631L147.527 144.202L176.263 144.202L176.263 115.631L205 115.631L205 87.0595L176.263 87.0595L176.263 58.4881L147.527 58.4881L147.527 87.0595L7.72982e-05 87.0595ZM118.79 29.9166L147.527 29.9166L147.527 58.4881L118.79 58.4881L118.79 29.9166ZM118.79 29.9166L90.0536 29.9166L90.0536 1.34521L118.79 1.34521L118.79 29.9166ZM118.79 172.774L147.527 172.774L147.527 144.202L118.79 144.202L118.79 172.774ZM118.79 172.774L90.0536 172.774L90.0536 201.345L118.79 201.345L118.79 172.774Z" fill="black"/>
</svg>
