<svg width="227" height="227" viewBox="0 0 227 227" fill="none" xmlns="http://www.w3.org/2000/svg">
<rect y="22.4194" width="227" height="182.23" fill="#F7FF0B"/>
<path d="M-2.61026e-05 97.3542L-2.74919e-05 129.139L163.359 129.139L163.359 160.924L195.179 160.924L195.179 129.139L227 129.139L227 97.3542L195.179 97.3542L195.179 65.5695L163.359 65.5695L163.359 97.3542L-2.61026e-05 97.3542ZM131.538 33.7847L163.359 33.7847L163.359 65.5695L131.538 65.5695L131.538 33.7847ZM131.538 33.7847L99.7179 33.7847L99.7179 1.99999L131.538 2L131.538 33.7847ZM131.538 192.708L163.359 192.708L163.359 160.924L131.538 160.924L131.538 192.708ZM131.538 192.708L99.7178 192.708L99.7178 224.493L131.538 224.493L131.538 192.708Z" fill="black"/>
</svg>
