<svg width="223" height="222" viewBox="0 0 223 222" fill="none" xmlns="http://www.w3.org/2000/svg">
<circle cx="185.051" cy="37.5086" r="36.2598" stroke="#8F8F8F" stroke-width="0.500135"/>
<circle cx="198.557" cy="38.0098" r="18.755" stroke="#8F8F8F" stroke-width="0.500135"/>
<circle cx="203.053" cy="38.0092" r="10.2528" stroke="#8F8F8F" stroke-width="0.500135"/>
<circle cx="185.051" cy="184.549" r="36.2598" stroke="#8F8F8F" stroke-width="0.500135"/>
<circle cx="198.557" cy="185.05" r="18.755" stroke="#8F8F8F" stroke-width="0.500135"/>
<circle cx="203.053" cy="185.05" r="10.2528" stroke="#8F8F8F" stroke-width="0.500135"/>
<circle cx="37.0101" cy="184.549" r="36.2598" stroke="#8F8F8F" stroke-width="0.500135"/>
<circle cx="50.5159" cy="185.05" r="18.755" stroke="#8F8F8F" stroke-width="0.500135"/>
<circle cx="55.0184" cy="185.05" r="10.2528" stroke="#8F8F8F" stroke-width="0.500135"/>
<circle cx="37.0101" cy="37.5086" r="36.2598" stroke="#8F8F8F" stroke-width="0.500135"/>
<circle cx="50.5159" cy="38.0098" r="18.755" stroke="#8F8F8F" stroke-width="0.500135"/>
<circle cx="55.0184" cy="38.0092" r="10.2528" stroke="#8F8F8F" stroke-width="0.500135"/>
<rect x="1.13163" y="74.1455" width="220.809" height="0.250067" stroke="#FF9C9C" stroke-width="0.250067" stroke-dasharray="4 4"/>
<rect x="1.13163" y="0.125034" width="221.31" height="0.250067" stroke="#FF9C9C" stroke-width="0.250067" stroke-dasharray="4 4"/>
<rect x="1.13163" y="147.665" width="220.809" height="0.250067" stroke="#FF9C9C" stroke-width="0.250067" stroke-dasharray="4 4"/>
<rect x="1.13163" y="221.184" width="221.31" height="0.250067" stroke="#FF9C9C" stroke-width="0.250067" stroke-dasharray="4 4"/>
<rect x="73.8962" y="1.12552" width="220.309" height="0.250061" transform="rotate(90 73.8962 1.12552)" stroke="#FF9C9C" stroke-width="0.250061" stroke-dasharray="4 4"/>
<rect x="0.375213" y="1.12552" width="220.309" height="0.250061" transform="rotate(90 0.375213 1.12552)" stroke="#FF9C9C" stroke-width="0.250061" stroke-dasharray="4 4"/>
<rect x="222.437" y="1.12552" width="220.309" height="0.250061" transform="rotate(90 222.437 1.12552)" stroke="#FF9C9C" stroke-width="0.250061" stroke-dasharray="4 4"/>
<rect x="147.917" y="1.12552" width="220.309" height="0.250061" transform="rotate(90 147.917 1.12552)" stroke="#FF9C9C" stroke-width="0.250061" stroke-dasharray="4 4"/>
<path d="M110.531 74.52C130.695 74.52 147.041 90.866 147.041 111.03C147.041 131.194 130.695 147.54 110.531 147.54C90.3672 147.54 74.0212 131.194 74.0212 111.03C74.0213 90.866 90.3672 74.52 110.531 74.52ZM125.035 92.5249C114.539 92.525 106.03 101.034 106.03 111.53C106.03 122.026 114.539 130.535 125.035 130.535C135.531 130.535 144.04 122.026 144.04 111.53C144.04 101.034 135.531 92.5249 125.035 92.5249Z" fill="#181212"/>
<circle cx="130.038" cy="112.53" r="10.5028" fill="#181212"/>
</svg>
