<svg width="248" height="247" viewBox="0 0 248 247" fill="none" xmlns="http://www.w3.org/2000/svg">
<circle cx="205.623" cy="41.6784" r="40.2907" stroke="#8F8F8F" stroke-width="0.555734"/>
<circle cx="220.63" cy="42.2353" r="20.84" stroke="#8F8F8F" stroke-width="0.555734"/>
<circle cx="225.626" cy="42.2349" r="11.3925" stroke="#8F8F8F" stroke-width="0.555734"/>
<circle cx="205.623" cy="205.065" r="40.2907" stroke="#8F8F8F" stroke-width="0.555734"/>
<circle cx="220.63" cy="205.622" r="20.84" stroke="#8F8F8F" stroke-width="0.555734"/>
<circle cx="225.626" cy="205.622" r="11.3925" stroke="#8F8F8F" stroke-width="0.555734"/>
<circle cx="41.1242" cy="205.065" r="40.2907" stroke="#8F8F8F" stroke-width="0.555734"/>
<circle cx="56.1316" cy="205.622" r="20.84" stroke="#8F8F8F" stroke-width="0.555734"/>
<circle cx="61.1348" cy="205.622" r="11.3925" stroke="#8F8F8F" stroke-width="0.555734"/>
<circle cx="41.1242" cy="41.6784" r="40.2907" stroke="#8F8F8F" stroke-width="0.555734"/>
<circle cx="56.1316" cy="42.2353" r="20.84" stroke="#8F8F8F" stroke-width="0.555734"/>
<circle cx="61.1348" cy="42.2349" r="11.3925" stroke="#8F8F8F" stroke-width="0.555734"/>
<rect x="1.25685" y="82.3882" width="245.357" height="0.277867" stroke="#FF9C9C" stroke-width="0.277867" stroke-dasharray="4.45 4.45"/>
<rect x="1.25685" y="0.138933" width="245.912" height="0.277867" stroke="#FF9C9C" stroke-width="0.277867" stroke-dasharray="4.45 4.45"/>
<rect x="1.25685" y="164.081" width="245.357" height="0.277867" stroke="#FF9C9C" stroke-width="0.277867" stroke-dasharray="4.45 4.45"/>
<rect x="1.25685" y="245.773" width="245.912" height="0.277867" stroke="#FF9C9C" stroke-width="0.277867" stroke-dasharray="4.45 4.45"/>
<rect x="82.1111" y="1.25075" width="244.801" height="0.27786" transform="rotate(90 82.1111 1.25075)" stroke="#FF9C9C" stroke-width="0.27786" stroke-dasharray="4.45 4.45"/>
<rect x="0.416734" y="1.25075" width="244.801" height="0.27786" transform="rotate(90 0.416734 1.25075)" stroke="#FF9C9C" stroke-width="0.27786" stroke-dasharray="4.45 4.45"/>
<rect x="247.165" y="1.25075" width="244.801" height="0.27786" transform="rotate(90 247.165 1.25075)" stroke="#FF9C9C" stroke-width="0.27786" stroke-dasharray="4.45 4.45"/>
<rect x="164.36" y="1.25075" width="244.801" height="0.277861" transform="rotate(90 164.36 1.25075)" stroke="#FF9C9C" stroke-width="0.277861" stroke-dasharray="4.45 4.45"/>
<circle cx="122.819" cy="123.373" r="40.5686" fill="#181212"/>
<circle cx="138.935" cy="123.929" r="21.1179" fill="#FFFAF5"/>
<circle cx="144.494" cy="123.929" r="11.6704" fill="#181212"/>
</svg>
