<svg width="250" height="250" viewBox="0 0 250 250" fill="none" xmlns="http://www.w3.org/2000/svg">
<circle cx="206.623" cy="43.6784" r="40.2907" stroke="#8F8F8F" stroke-width="0.555734"/>
<circle cx="221.63" cy="44.2353" r="20.84" stroke="#8F8F8F" stroke-width="0.555734"/>
<circle cx="226.626" cy="44.2349" r="11.3925" stroke="#8F8F8F" stroke-width="0.555734"/>
<circle cx="206.623" cy="207.065" r="40.2907" stroke="#8F8F8F" stroke-width="0.555734"/>
<circle cx="221.63" cy="207.622" r="20.84" stroke="#8F8F8F" stroke-width="0.555734"/>
<circle cx="226.626" cy="207.622" r="11.3925" stroke="#8F8F8F" stroke-width="0.555734"/>
<circle cx="42.1242" cy="207.065" r="40.2907" stroke="#8F8F8F" stroke-width="0.555734"/>
<circle cx="57.1316" cy="207.622" r="20.84" stroke="#8F8F8F" stroke-width="0.555734"/>
<circle cx="62.1348" cy="207.622" r="11.3925" stroke="#8F8F8F" stroke-width="0.555734"/>
<circle cx="42.1242" cy="43.6784" r="40.2907" stroke="#8F8F8F" stroke-width="0.555734"/>
<circle cx="57.1316" cy="44.2353" r="20.84" stroke="#8F8F8F" stroke-width="0.555734"/>
<circle cx="62.1348" cy="44.2349" r="11.3925" stroke="#8F8F8F" stroke-width="0.555734"/>
<rect x="2.25685" y="84.3882" width="245.357" height="0.277867" stroke="#FF9C9C" stroke-width="0.277867" stroke-dasharray="4.45 4.45"/>
<rect x="2.25685" y="2.13893" width="245.912" height="0.277867" stroke="#FF9C9C" stroke-width="0.277867" stroke-dasharray="4.45 4.45"/>
<rect x="2.25685" y="166.081" width="245.357" height="0.277867" stroke="#FF9C9C" stroke-width="0.277867" stroke-dasharray="4.45 4.45"/>
<rect x="2.25685" y="247.773" width="245.912" height="0.277867" stroke="#FF9C9C" stroke-width="0.277867" stroke-dasharray="4.45 4.45"/>
<rect x="83.1111" y="3.25075" width="244.801" height="0.27786" transform="rotate(90 83.1111 3.25075)" stroke="#FF9C9C" stroke-width="0.27786" stroke-dasharray="4.45 4.45"/>
<rect x="1.41673" y="3.25075" width="244.801" height="0.27786" transform="rotate(90 1.41673 3.25075)" stroke="#FF9C9C" stroke-width="0.27786" stroke-dasharray="4.45 4.45"/>
<rect x="248.165" y="3.25075" width="244.801" height="0.27786" transform="rotate(90 248.165 3.25075)" stroke="#FF9C9C" stroke-width="0.27786" stroke-dasharray="4.45 4.45"/>
<rect x="165.36" y="3.25075" width="244.801" height="0.277861" transform="rotate(90 165.36 3.25075)" stroke="#FF9C9C" stroke-width="0.277861" stroke-dasharray="4.45 4.45"/>
<circle cx="123.819" cy="125.373" r="40.5686" fill="#181212"/>
<circle cx="139.935" cy="125.929" r="21.1179" fill="#FFFAF5"/>
<circle cx="145.494" cy="125.929" r="11.6704" fill="#181212"/>
</svg>
